<?xml version="1.0" encoding="UTF-8"?>
<svg id="Layer_1" xmlns="http://www.w3.org/2000/svg" xmlns:xlink="http://www.w3.org/1999/xlink" version="1.1" viewBox="0 0 600.5 611.4">
  <!-- Generator: Adobe Illustrator 29.6.0, SVG Export Plug-In . SVG Version: 2.1.1 Build 207)  -->
  <defs>
    <style>
      .st0 {
        fill: none;
      }

      .st1 {
        fill: #fffbe4;
      }

      .st2 {
        fill: #2e582a;
      }

      .st3 {
        clip-path: url(#clippath-1);
      }

      .st4 {
        clip-path: url(#clippath-2);
      }

      .st5 {
        fill: #37ac4e;
      }

      .st6 {
        clip-path: url(#clippath);
      }
    </style>
    <clipPath id="clippath">
      <rect class="st0" x="-4.3" y="673.2" width="608.7" height="618"/>
    </clipPath>
    <clipPath id="clippath-1">
      <rect class="st0" x="-4.3" y="-3.3" width="608.7" height="618"/>
    </clipPath>
    <clipPath id="clippath-2">
      <rect class="st0" x="-4.3" y="-639.3" width="608.7" height="618"/>
    </clipPath>
  </defs>
  <g class="st6">
    <path class="st2" d="M-24.4,771.3c20.3,0,21.4-39.5,43.7-39.5s32.8,13.5,49.1,13.5,14.2-5.6,14.2-12.8c0-13.4-15.4-26.7-15.4-41.1s33.9-8.6,33.9-29.8-9.3-12.7-30.7-15.6c-18.8-2.5-27.7-7.2-27.7-18.8s.4-4.6.4-13.6-4-13.4-10-13.4c-14.9,0-33.2,27.4-53.3,27.4s-26.9-30.4-44.6-30.4-13.2,4.8-13.2,17.1,7.3,18.6,7.3,35.2-7.3,10.9-22,11.5c-18.7.8-30.9,2.9-30.9,12.9s36.6,10.5,36.6,23.7-35.4,20.5-35.4,33,5.8,7.3,14.5,7.3c18.1,0,27.4-8.5,49.9-8.5s13.3,41.7,33.6,41.7ZM-54.8,677.3c0-8.5,13.4-15.2,31.2-15.2,28.5,0,47.7,8.6,47.7,20.8s-10.1,15.1-33.1,15.1-45.8-8.6-45.8-20.7Z"/>
  </g>
  <g class="st3">
    <g>
      <g>
        <path class="st1" d="M37.1,273.8c20.3,0,21.4-39.5,43.7-39.5s32.8,13.5,49.1,13.5,14.2-5.6,14.2-12.8c0-13.4-15.4-26.7-15.4-41.1s33.9-8.6,33.9-29.8-9.3-12.7-30.7-15.6c-18.8-2.5-27.7-7.2-27.7-18.8s.4-4.6.4-13.6-4-13.4-10-13.4c-14.9,0-33.2,27.4-53.3,27.4S14.5,99.7-3.2,99.7s-13.2,4.8-13.2,17.1,7.3,18.6,7.3,35.2-7.3,10.9-22,11.5c-18.7.8-30.9,2.9-30.9,12.9s36.6,10.5,36.6,23.7-35.4,20.5-35.4,33,5.8,7.3,14.5,7.3c18.1,0,27.4-8.5,49.9-8.5s13.3,41.7,33.6,41.7ZM6.7,179.8c0-8.5,13.4-15.2,31.2-15.2,28.5,0,47.7,8.6,47.7,20.8s-10.1,15.1-33.1,15.1-45.8-8.6-45.8-20.7Z"/>
        <path class="st1" d="M253.6,303.2c20.3,0,21.4-39.5,43.7-39.5s32.8,13.5,49.1,13.5,14.2-5.6,14.2-12.8c0-13.4-15.4-26.7-15.4-41.1s33.9-8.6,33.9-29.8-9.3-12.7-30.7-15.6c-18.8-2.5-27.7-7.2-27.7-18.8s.4-4.6.4-13.6-4-13.4-10-13.4c-14.9,0-33.2,27.4-53.3,27.4s-26.9-30.4-44.6-30.4-13.2,4.8-13.2,17.1,7.3,18.6,7.3,35.2-7.3,10.9-22,11.5c-18.7.8-30.9,2.9-30.9,12.9s36.6,10.5,36.6,23.7-35.4,20.5-35.4,33,5.8,7.3,14.5,7.3c18.1,0,27.4-8.5,49.9-8.5s13.3,41.7,33.6,41.7ZM223.2,209.3c0-8.5,13.4-15.2,31.2-15.2,28.5,0,47.7,8.6,47.7,20.8s-10.1,15.1-33.1,15.1-45.8-8.6-45.8-20.7Z"/>
        <path class="st1" d="M-24.4,94.7c20.3,0,21.4-39.5,43.7-39.5s32.8,13.5,49.1,13.5,14.2-5.6,14.2-12.8c0-13.4-15.4-26.7-15.4-41.1s33.9-8.6,33.9-29.8-9.3-12.7-30.7-15.6c-18.8-2.5-27.7-7.2-27.7-18.8s.4-4.6.4-13.6-4-13.4-10-13.4C18.2-76.4,0-49-20.2-49s-26.9-30.4-44.6-30.4-13.2,4.8-13.2,17.1,7.3,18.6,7.3,35.2-7.3,10.9-22,11.5c-18.7.8-30.9,2.9-30.9,12.9s36.6,10.5,36.6,23.7-35.4,20.5-35.4,33,5.8,7.3,14.5,7.3c18.1,0,27.4-8.5,49.9-8.5s13.3,41.7,33.6,41.7ZM-54.8.7c0-8.5,13.4-15.2,31.2-15.2C4.9-14.5,24.1-5.8,24.1,6.4s-10.1,15.1-33.1,15.1S-54.8,12.8-54.8.7Z"/>
        <path class="st1" d="M192,124.2c20.3,0,21.4-39.5,43.7-39.5s32.8,13.5,49.1,13.5,14.2-5.6,14.2-12.8c0-13.4-15.4-26.7-15.4-41.1s33.9-8.6,33.9-29.8-9.3-12.7-30.7-15.6c-18.8-2.5-27.7-7.2-27.7-18.8s.4-4.6.4-13.6-4-13.4-10-13.4c-14.9,0-33.2,27.4-53.3,27.4s-26.9-30.4-44.6-30.4-13.2,4.8-13.2,17.1,7.3,18.6,7.3,35.2-7.3,10.9-22,11.5c-18.7.8-30.9,2.9-30.9,12.9s36.6,10.5,36.6,23.7-35.4,20.5-35.4,33,5.8,7.3,14.5,7.3c18.1,0,27.4-8.5,49.9-8.5s13.3,41.7,33.6,41.7ZM161.7,30.2c0-8.5,13.4-15.2,31.2-15.2,28.5,0,47.7,8.6,47.7,20.8s-10.1,15.1-33.1,15.1-45.8-8.6-45.8-20.7Z"/>
        <path class="st1" d="M473.3,333.6c20.3,0,21.4-39.5,43.7-39.5s32.8,13.5,49.1,13.5,14.2-5.6,14.2-12.8c0-13.4-15.4-26.7-15.4-41.1s33.9-8.6,33.9-29.8-9.3-12.7-30.7-15.6c-18.8-2.5-27.7-7.2-27.7-18.8s.4-4.6.4-13.6-4-13.4-10-13.4c-14.9,0-33.2,27.4-53.3,27.4s-26.9-30.4-44.6-30.4-13.2,4.8-13.2,17.1,7.3,18.6,7.3,35.2-7.3,10.9-22,11.5c-18.7.8-30.9,2.9-30.9,12.9s36.6,10.5,36.6,23.7-35.4,20.5-35.4,33,5.8,7.3,14.5,7.3c18.1,0,27.4-8.5,49.9-8.5s13.3,41.7,33.6,41.7ZM443,239.6c0-8.5,13.4-15.2,31.2-15.2,28.5,0,47.7,8.6,47.7,20.8s-10.1,15.1-33.1,15.1-45.8-8.6-45.8-20.7Z"/>
        <path class="st1" d="M689.8,363.1c20.3,0,21.4-39.5,43.7-39.5s32.8,13.5,49.1,13.5,14.2-5.6,14.2-12.8c0-13.4-15.4-26.7-15.4-41.1s33.9-8.6,33.9-29.8-9.3-12.7-30.7-15.6c-18.8-2.5-27.7-7.2-27.7-18.8s.4-4.6.4-13.6-4-13.4-10-13.4c-14.9,0-33.2,27.4-53.3,27.4s-26.9-30.4-44.6-30.4-13.2,4.8-13.2,17.1,7.3,18.6,7.3,35.2-7.3,10.9-22,11.5c-18.7.8-30.9,2.9-30.9,12.9s36.6,10.5,36.6,23.7-35.4,20.5-35.4,33,5.8,7.3,14.5,7.3c18.1,0,27.4-8.5,49.9-8.5s13.3,41.7,33.6,41.7ZM659.4,269.1c0-8.5,13.4-15.2,31.2-15.2,28.5,0,47.7,8.6,47.7,20.8s-10.1,15.1-33.1,15.1-45.8-8.6-45.8-20.7Z"/>
        <path class="st1" d="M411.8,154.5c20.3,0,21.4-39.5,43.7-39.5s32.8,13.5,49.1,13.5,14.2-5.6,14.2-12.8c0-13.4-15.4-26.7-15.4-41.1s33.9-8.6,33.9-29.8-9.3-12.7-30.7-15.6c-18.8-2.5-27.7-7.2-27.7-18.8s.4-4.6.4-13.6-4-13.4-10-13.4c-14.9,0-33.2,27.4-53.3,27.4s-26.9-30.4-44.6-30.4-13.2,4.8-13.2,17.1,7.3,18.6,7.3,35.2-7.3,10.9-22,11.5c-18.7.8-30.9,2.9-30.9,12.9s36.6,10.5,36.6,23.7-35.4,20.5-35.4,33,5.8,7.3,14.5,7.3c18.1,0,27.4-8.5,49.9-8.5s13.3,41.7,33.6,41.7ZM381.4,60.5c0-8.5,13.4-15.2,31.2-15.2,28.5,0,47.7,8.6,47.7,20.8s-10.1,15.1-33.1,15.1-45.8-8.6-45.8-20.7Z"/>
        <path class="st1" d="M628.2,184c20.3,0,21.4-39.5,43.7-39.5s32.8,13.5,49.1,13.5,14.2-5.6,14.2-12.8c0-13.4-15.4-26.7-15.4-41.1s33.9-8.6,33.9-29.8-9.3-12.7-30.7-15.6c-18.8-2.5-27.7-7.2-27.7-18.8s.4-4.6.4-13.6-4-13.4-10-13.4c-14.9,0-33.2,27.4-53.3,27.4s-26.9-30.4-44.6-30.4-13.2,4.8-13.2,17.1,7.3,18.6,7.3,35.2-7.3,10.9-22,11.5c-18.7.8-30.9,2.9-30.9,12.9s36.6,10.5,36.6,23.7-35.4,20.5-35.4,33,5.8,7.3,14.5,7.3c18.1,0,27.4-8.5,49.9-8.5s13.3,41.7,33.6,41.7ZM597.9,90c0-8.5,13.4-15.2,31.2-15.2,28.5,0,47.7,8.6,47.7,20.8s-10.1,15.1-33.1,15.1-45.8-8.6-45.8-20.7Z"/>
      </g>
      <g>
        <path class="st1" d="M-54.2,601.4c20.3,0,21.4-39.5,43.7-39.5s32.8,13.5,49.1,13.5,14.2-5.6,14.2-12.8c0-13.4-15.4-26.7-15.4-41.1s33.9-8.6,33.9-29.8-9.3-12.7-30.7-15.6c-18.8-2.5-27.7-7.2-27.7-18.8s.4-4.6.4-13.6-4-13.4-10-13.4c-14.9,0-33.2,27.4-53.3,27.4s-26.9-30.4-44.6-30.4-13.2,4.8-13.2,17.1,7.3,18.6,7.3,35.2-7.3,10.9-22,11.5c-18.7.8-30.9,2.9-30.9,12.9s36.6,10.5,36.6,23.7-35.4,20.5-35.4,33,5.8,7.3,14.5,7.3c18.1,0,27.4-8.5,49.9-8.5s13.3,41.7,33.6,41.7ZM-84.6,507.4c0-8.5,13.4-15.2,31.2-15.2,28.5,0,47.7,8.6,47.7,20.8s-10.1,15.1-33.1,15.1-45.8-8.6-45.8-20.7Z"/>
        <path class="st1" d="M162.2,630.9c20.3,0,21.4-39.5,43.7-39.5s32.8,13.5,49.1,13.5,14.2-5.6,14.2-12.8c0-13.4-15.4-26.7-15.4-41.1s33.9-8.6,33.9-29.8-9.3-12.7-30.7-15.6c-18.8-2.5-27.7-7.2-27.7-18.8s.4-4.6.4-13.6-4-13.4-10-13.4c-14.9,0-33.2,27.4-53.3,27.4s-26.9-30.4-44.6-30.4-13.2,4.8-13.2,17.1,7.3,18.6,7.3,35.2-7.3,10.9-22,11.5c-18.7.8-30.9,2.9-30.9,12.9s36.6,10.5,36.6,23.7-35.4,20.5-35.4,33,5.8,7.3,14.5,7.3c18.1,0,27.4-8.5,49.9-8.5s13.3,41.7,33.6,41.7ZM131.9,536.9c0-8.5,13.4-15.2,31.2-15.2,28.5,0,47.7,8.6,47.7,20.8s-10.1,15.1-33.1,15.1-45.8-8.6-45.8-20.7Z"/>
        <path class="st1" d="M-115.8,422.4c20.3,0,21.4-39.5,43.7-39.5s32.8,13.5,49.1,13.5,14.2-5.6,14.2-12.8c0-13.4-15.4-26.7-15.4-41.1s33.9-8.6,33.9-29.8-9.3-12.7-30.7-15.6c-18.8-2.5-27.7-7.2-27.7-18.8s.4-4.6.4-13.6-4-13.4-10-13.4c-14.9,0-33.2,27.4-53.3,27.4s-26.9-30.4-44.6-30.4-13.2,4.8-13.2,17.1,7.3,18.6,7.3,35.2-7.3,10.9-22,11.5c-18.7.8-30.9,2.9-30.9,12.9s36.6,10.5,36.6,23.7-35.4,20.5-35.4,33,5.8,7.3,14.5,7.3c18.1,0,27.4-8.5,49.9-8.5s13.3,41.7,33.6,41.7ZM-146.1,328.4c0-8.5,13.4-15.2,31.2-15.2,28.5,0,47.7,8.6,47.7,20.8s-10.1,15.1-33.1,15.1-45.8-8.6-45.8-20.7Z"/>
        <path class="st1" d="M100.7,451.8c20.3,0,21.4-39.5,43.7-39.5s32.8,13.5,49.1,13.5,14.2-5.6,14.2-12.8c0-13.4-15.4-26.7-15.4-41.1s33.9-8.6,33.9-29.8-9.3-12.7-30.7-15.6c-18.8-2.5-27.7-7.2-27.7-18.8s.4-4.6.4-13.6-4-13.4-10-13.4c-14.9,0-33.2,27.4-53.3,27.4s-26.9-30.4-44.6-30.4-13.2,4.8-13.2,17.1,7.3,18.6,7.3,35.2-7.3,10.9-22,11.5c-18.7.8-30.9,2.9-30.9,12.9s36.6,10.5,36.6,23.7S2.7,398.8,2.7,411.3s5.8,7.3,14.5,7.3c18.1,0,27.4-8.5,49.9-8.5s13.3,41.7,33.6,41.7ZM70.3,357.8c0-8.5,13.4-15.2,31.2-15.2,28.5,0,47.7,8.6,47.7,20.8s-10.1,15.1-33.1,15.1-45.8-8.6-45.8-20.7Z"/>
        <path class="st1" d="M382,661.2c20.3,0,21.4-39.5,43.7-39.5s32.8,13.5,49.1,13.5,14.2-5.6,14.2-12.8c0-13.4-15.4-26.7-15.4-41.1s33.9-8.6,33.9-29.8-9.3-12.7-30.7-15.6c-18.8-2.5-27.7-7.2-27.7-18.8s.4-4.6.4-13.6-4-13.4-10-13.4c-14.9,0-33.2,27.4-53.3,27.4s-26.9-30.4-44.6-30.4-13.2,4.8-13.2,17.1,7.3,18.6,7.3,35.2-7.3,10.9-22,11.5c-18.7.8-30.9,2.9-30.9,12.9s36.6,10.5,36.6,23.7-35.4,20.5-35.4,33,5.8,7.3,14.5,7.3c18.1,0,27.4-8.5,49.9-8.5s13.3,41.7,33.6,41.7ZM351.6,567.2c0-8.5,13.4-15.2,31.2-15.2,28.5,0,47.7,8.6,47.7,20.8s-10.1,15.1-33.1,15.1-45.8-8.6-45.8-20.7Z"/>
        <path class="st1" d="M598.5,690.7c20.3,0,21.4-39.5,43.7-39.5s32.8,13.5,49.1,13.5,14.2-5.6,14.2-12.8c0-13.4-15.4-26.7-15.4-41.1s33.9-8.6,33.9-29.8-9.3-12.7-30.7-15.6c-18.8-2.5-27.7-7.2-27.7-18.8s.4-4.6.4-13.6-4-13.4-10-13.4c-14.9,0-33.2,27.4-53.3,27.4s-26.9-30.4-44.6-30.4-13.2,4.8-13.2,17.1,7.3,18.6,7.3,35.2-7.3,10.9-22,11.5c-18.7.8-30.9,2.9-30.9,12.9s36.6,10.5,36.6,23.7-35.4,20.5-35.4,33,5.8,7.3,14.5,7.3c18.1,0,27.4-8.5,49.9-8.5s13.3,41.7,33.6,41.7ZM568.1,596.7c0-8.5,13.4-15.2,31.2-15.2,28.5,0,47.7,8.6,47.7,20.8s-10.1,15.1-33.1,15.1-45.8-8.6-45.8-20.7Z"/>
        <path class="st1" d="M320.5,482.2c20.3,0,21.4-39.5,43.7-39.5s32.8,13.5,49.1,13.5,14.2-5.6,14.2-12.8c0-13.4-15.4-26.7-15.4-41.1s33.9-8.6,33.9-29.8-9.3-12.7-30.7-15.6c-18.8-2.5-27.7-7.2-27.7-18.8s.4-4.6.4-13.6-4-13.4-10-13.4c-14.9,0-33.2,27.4-53.3,27.4s-26.9-30.4-44.6-30.4-13.2,4.8-13.2,17.1,7.3,18.6,7.3,35.2-7.3,10.9-22,11.5c-18.7.8-30.9,2.9-30.9,12.9s36.6,10.5,36.6,23.7-35.4,20.5-35.4,33,5.8,7.3,14.5,7.3c18.1,0,27.4-8.5,49.9-8.5s13.3,41.7,33.6,41.7ZM290.1,388.2c0-8.5,13.4-15.2,31.2-15.2,28.5,0,47.7,8.6,47.7,20.8s-10.1,15.1-33.1,15.1-45.8-8.6-45.8-20.7Z"/>
        <path class="st1" d="M536.9,511.7c20.3,0,21.4-39.5,43.7-39.5s32.8,13.5,49.1,13.5,14.2-5.6,14.2-12.8c0-13.4-15.4-26.7-15.4-41.1s33.9-8.6,33.9-29.8-9.3-12.7-30.7-15.6c-18.8-2.5-27.7-7.2-27.7-18.8s.4-4.6.4-13.6-4-13.4-10-13.4c-14.9,0-33.2,27.4-53.3,27.4s-26.9-30.4-44.6-30.4-13.2,4.8-13.2,17.1,7.3,18.6,7.3,35.2-7.3,10.9-22,11.5c-18.7.8-30.9,2.9-30.9,12.9s36.6,10.5,36.6,23.7-35.4,20.5-35.4,33,5.8,7.3,14.5,7.3c18.1,0,27.4-8.5,49.9-8.5s13.3,41.7,33.6,41.7ZM506.6,417.7c0-8.5,13.4-15.2,31.2-15.2,28.5,0,47.7,8.6,47.7,20.8s-10.1,15.1-33.1,15.1-45.8-8.6-45.8-20.7Z"/>
      </g>
    </g>
  </g>
  <g class="st4">
    <g>
      <path class="st5" d="M382,25.2c20.3,0,21.4-39.5,43.7-39.5S458.6-.7,474.9-.7s14.2-5.6,14.2-12.8c0-13.4-15.4-26.7-15.4-41.1s33.9-8.6,33.9-29.8-9.3-12.7-30.7-15.6c-18.8-2.5-27.7-7.2-27.7-18.8s.4-4.6.4-13.6-4-13.4-10-13.4c-14.9,0-33.2,27.4-53.3,27.4s-26.9-30.4-44.6-30.4-13.2,4.8-13.2,17.1,7.3,18.6,7.3,35.2-7.3,10.9-22,11.5c-18.7.8-30.9,2.9-30.9,12.9s36.6,10.5,36.6,23.7-35.4,20.5-35.4,33,5.8,7.3,14.5,7.3c18.1,0,27.4-8.5,49.9-8.5s13.3,41.7,33.6,41.7ZM351.6-68.8c0-8.5,13.4-15.2,31.2-15.2,28.5,0,47.7,8.6,47.7,20.8s-10.1,15.1-33.1,15.1-45.8-8.6-45.8-20.7Z"/>
      <path class="st5" d="M598.5,54.7c20.3,0,21.4-39.5,43.7-39.5s32.8,13.5,49.1,13.5,14.2-5.6,14.2-12.8c0-13.4-15.4-26.7-15.4-41.1s33.9-8.6,33.9-29.8-9.3-12.7-30.7-15.6c-18.8-2.5-27.7-7.2-27.7-18.8s.4-4.6.4-13.6-4-13.4-10-13.4c-14.9,0-33.2,27.4-53.3,27.4s-26.9-30.4-44.6-30.4-13.2,4.8-13.2,17.1,7.3,18.6,7.3,35.2-7.3,10.9-22,11.5c-18.7.8-30.9,2.9-30.9,12.9s36.6,10.5,36.6,23.7-35.4,20.5-35.4,33,5.8,7.3,14.5,7.3c18.1,0,27.4-8.5,49.9-8.5s13.3,41.7,33.6,41.7ZM568.1-39.3c0-8.5,13.4-15.2,31.2-15.2,28.5,0,47.7,8.6,47.7,20.8s-10.1,15.1-33.1,15.1-45.8-8.6-45.8-20.7Z"/>
    </g>
  </g>
</svg>