<?xml version="1.0" encoding="UTF-8"?>
<svg id="Layer_1" xmlns="http://www.w3.org/2000/svg" version="1.1" viewBox="0 0 487.1 379">
  <!-- Generator: Adobe Illustrator 29.6.0, SVG Export Plug-In . SVG Version: 2.1.1 Build 207)  -->
  <defs>
    <style>
      .st0 {
        fill: #fffbe4;
      }
    </style>
  </defs>
  <path class="st0" d="M214.8,379c44,0,46.3-85.6,94.8-85.6s71.2,29.4,106.5,29.4,30.7-12.1,30.7-27.8c0-29.1-33.3-57.9-33.3-89.1s73.5-18.7,73.5-64.6-20.1-27.6-66.5-33.7c-40.7-5.4-60.1-15.6-60.1-40.8s.8-10,.8-29.5-8.7-29-21.7-29c-32.3,0-71.9,59.5-115.5,59.5S165.8,1.7,127.3,1.7s-28.6,10.4-28.6,37.1,15.9,40.2,15.9,76.4-15.8,23.7-47.6,24.9C26.5,141.7,0,146.3,0,168s79.3,22.8,79.3,51.4S2.4,264,2.4,291s12.7,15.9,31.4,15.9c39.3,0,59.3-18.4,108.2-18.4s28.8,90.5,72.8,90.5ZM149,175.2c0-18.4,29-32.9,67.7-32.9,61.8,0,103.4,18.7,103.4,45.2s-22,32.7-71.8,32.7-99.3-18.6-99.3-44.9Z"/>
</svg>